<svg width="1939.000000" height="620.000000" viewBox="0 0 1939 620" fill="none" xmlns="http://www.w3.org/2000/svg" xmlns:xlink="http://www.w3.org/1999/xlink">

	<defs>
		<filter id="filter_2_19_dd" x="0.000000" y="0.000000" width="1939.000000" height="620.000000" filterUnits="userSpaceOnUse" color-interpolation-filters="sRGB">
			<feFlood flood-opacity="0" result="BackgroundImageFix"/>
			<feColorMatrix in="SourceAlpha" type="matrix" values="0 0 0 0 0 0 0 0 0 0 0 0 0 0 0 0 0 0 127 0" result="hardAlpha"/>
			<feOffset dx="0" dy="0"/>
			<feGaussianBlur stdDeviation="6.66667"/>
			<feComposite in2="hardAlpha" operator="out" k2="-1" k3="1"/>
			<feColorMatrix type="matrix" values="0 0 0 0 0.094118 0 0 0 0 0.1098 0 0 0 0 0.14118 0 0 0 0.25 0"/>
			<feBlend mode="normal" in2="BackgroundImageFix" result="effect_dropShadow_1"/>
			<feBlend mode="normal" in="SourceGraphic" in2="effect_dropShadow_1" result="shape"/>
		</filter>
	</defs>
	<g filter="url(#filter_2_19_dd)">
		<rect id="hero-bg" x="20.000000" y="20.000000" rx="60.000000" width="1899.000000" height="580.000000" fill="#101720" fill-opacity="1.000000"/>
		<path id="Hello" d="M978.31 162.3L978.31 293L1005.87 293L1005.87 162.3L978.31 162.3ZM1025.29 162.3L1025.29 293L1052.85 293L1052.85 162.3L1025.29 162.3ZM750.82 165.91L750.82 293L779.07 293L779.07 239.91L829.43 239.91L829.43 293L857.91 293L857.91 165.91L829.43 165.91L829.43 215.43L779.07 215.43L779.07 165.91L750.82 165.91ZM897.6 289.13Q908.67 294.97 922.87 294.97Q933.85 294.97 943.04 291.19Q947.58 289.32 951.46 286.53Q955.42 283.67 958.68 279.85L943.56 264.74Q940.62 268.08 936.96 270.2Q935.71 270.92 934.38 271.51Q929.19 273.75 922.69 273.75Q915.66 273.75 910.52 270.8Q908.67 269.72 907.12 268.31Q904.4 265.82 902.61 262.32Q901.69 260.49 901.07 258.42L963.73 258.23Q964.44 254.85 964.7 252.26Q965.01 249.62 965.01 247.29Q965.01 235.6 960.27 226.32Q959.82 225.46 959.34 224.62Q956.43 219.52 952.4 215.57Q948.57 211.82 943.74 209.1Q943.56 209 943.38 208.9Q933.62 203.52 920.89 203.52Q909.81 203.52 900.59 207.66Q898.73 208.49 896.94 209.5Q891.52 212.53 887.25 216.72Q883.16 220.73 880.11 225.8Q878.86 227.89 877.86 230.09Q873.91 238.78 873.91 249.27Q873.91 259.19 877.49 267.57Q878.65 270.3 880.19 272.87Q882.76 277.08 886.09 280.55Q891 285.65 897.6 289.13ZM901.08 239.48Q901.63 237.6 902.43 235.95Q904.37 231.97 907.46 229.33Q908.56 228.38 909.81 227.6Q910.19 227.37 910.59 227.15Q915.12 224.62 921.06 224.62Q927.22 224.62 931.43 227.21Q932.53 227.88 933.48 228.71Q936.21 231.09 937.81 234.77Q938.71 236.84 939.26 239.37L901.08 239.48ZM1093.85 290.86Q1103.23 294.97 1114.42 294.97Q1126.55 294.97 1136.39 290.23Q1137.64 289.63 1138.85 288.95Q1144.81 285.63 1149.42 280.94Q1153.13 277.15 1155.93 272.47Q1157.91 269.23 1159.26 265.74Q1162.27 258 1162.27 249.09Q1162.27 239.67 1158.92 231.63Q1157.67 228.62 1155.93 225.8Q1153.18 221.26 1149.57 217.58Q1144.93 212.84 1138.85 209.5Q1137.75 208.89 1136.63 208.34Q1126.68 203.52 1114.42 203.52Q1102.35 203.52 1092.53 208.22Q1091.18 208.86 1089.89 209.59Q1083.6 213.1 1078.82 218.08Q1075.43 221.62 1072.8 225.89Q1071.25 228.42 1070.07 231.12Q1066.52 239.33 1066.52 249.09Q1066.52 258.11 1069.57 265.93Q1070.9 269.32 1072.8 272.47Q1075.6 277.1 1079.28 280.86Q1083.93 285.6 1089.98 288.95Q1091.88 290 1093.85 290.86ZM1124.6 267.5Q1120.19 269.97 1114.42 269.97Q1109.46 269.97 1105.42 268.05Q1104.77 267.74 1104.13 267.38Q1102.43 266.38 1101.01 265.07Q1098.68 262.94 1097.1 259.99Q1096.84 259.49 1096.6 258.97Q1094.6 254.58 1094.6 249.27Q1094.6 243.12 1097.1 238.46Q1098.65 235.59 1100.93 233.51Q1102.38 232.18 1104.13 231.16Q1104.77 230.8 1105.42 230.49Q1109.46 228.57 1114.42 228.57Q1120.35 228.57 1124.74 231.16Q1126.64 232.27 1128.18 233.75Q1130.25 235.73 1131.68 238.37Q1134.18 242.94 1134.18 249.09Q1134.18 255.2 1131.77 259.99Q1130.43 262.61 1128.46 264.59Q1126.86 266.19 1124.82 267.38Q1124.72 267.44 1124.6 267.5Z" fill="#9ECEFF" fill-opacity="1.000000" fill-rule="evenodd"/>
		<path id="Welcome to my Github profile" d="M1360.78 447.37L1360.78 473L1371.8 473L1371.8 447.37L1383.69 447.37L1383.69 473L1394.69 473L1394.69 438L1371.8 438L1371.8 433.69Q1371.8 431.96 1372.65 430.94Q1372.69 430.89 1372.73 430.84Q1372.88 430.68 1373.05 430.54Q1373.95 429.79 1375.48 429.79Q1376.27 429.79 1376.95 430.02Q1377.64 430.23 1378.36 430.74L1383.83 422.67Q1381.95 421.23 1379.92 420.58Q1377.92 419.93 1375.48 419.93Q1370.94 419.93 1367.65 421.84Q1365.84 422.9 1364.47 424.37Q1363.38 425.55 1362.57 426.99Q1362.27 427.55 1362.01 428.12Q1360.78 430.92 1360.78 434.25L1360.78 438L1353.08 438L1353.08 447.37L1360.78 447.37ZM593.18 420.72L593.18 473L604.21 473L604.21 420.72L593.18 420.72ZM1106.48 420.72L1106.48 473L1117.5 473L1117.5 453.04Q1117.5 451.44 1118.13 450.15Q1118.21 449.99 1118.29 449.85Q1118.76 449 1119.44 448.39Q1119.9 447.99 1120.44 447.68Q1121.81 446.93 1123.62 446.93Q1125.23 446.93 1126.49 447.59Q1127.25 447.99 1127.89 448.63Q1128.38 449.12 1128.73 449.7Q1129.59 451.11 1129.59 453.04L1129.59 473L1140.61 473L1140.61 450.6Q1140.61 446.66 1138.92 443.69L1138.91 443.66Q1138.21 442.42 1137.28 441.41Q1135.93 439.97 1134.13 438.98Q1131.03 437.28 1126.92 437.28Q1122.92 437.28 1119.84 438.96L1119.8 438.98Q1118.54 439.67 1117.5 440.6L1117.5 420.72L1106.48 420.72ZM1186.47 420.72L1186.47 473L1197.35 473L1197.35 470.42Q1198.6 471.47 1200.14 472.24Q1200.68 472.51 1201.26 472.74Q1203.75 473.72 1206.63 473.72Q1210.67 473.72 1213.96 472.15Q1214.73 471.79 1215.46 471.34Q1216.99 470.4 1218.26 469.18Q1220.18 467.34 1221.5 464.87Q1221.55 464.79 1221.59 464.7Q1223.69 460.65 1223.69 455.51Q1223.69 450.31 1221.56 446.26Q1221.53 446.2 1221.5 446.15Q1220.16 443.63 1218.18 441.77Q1216.94 440.59 1215.46 439.67Q1214.68 439.19 1213.88 438.81Q1210.62 437.28 1206.63 437.28Q1203.36 437.28 1200.59 438.45Q1200.37 438.54 1200.14 438.65Q1198.68 439.32 1197.49 440.25L1197.49 420.72L1186.47 420.72ZM1402.4 420.72L1402.4 473L1413.42 473L1413.42 420.72L1402.4 420.72ZM1061.68 432.54Q1062.93 433.18 1064.51 433.18Q1066.07 433.18 1067.31 432.53Q1068.1 432.11 1068.75 431.42Q1069.46 430.65 1069.87 429.75Q1070.4 428.56 1070.4 427.13Q1070.4 425.44 1069.69 424.11Q1069.31 423.41 1068.75 422.81Q1068.13 422.17 1067.39 421.77Q1066.13 421.09 1064.51 421.09Q1062.88 421.09 1061.62 421.76Q1060.85 422.16 1060.22 422.81Q1059.6 423.44 1059.21 424.2Q1058.53 425.49 1058.53 427.13Q1058.53 428.51 1059.04 429.66Q1059.46 430.62 1060.22 431.42Q1060.89 432.12 1061.68 432.54ZM1018.69 472.41Q1022.83 473.79 1027.42 473.79Q1034.99 473.79 1040.77 470.62Q1042.62 469.62 1044.19 468.3Q1047.61 465.48 1049.84 461.24Q1053.13 455 1053.13 445.85L1053.13 444.2L1026.41 444.2L1026.41 453.77L1041.02 454Q1040.61 455.58 1039.91 456.91Q1038.98 458.67 1037.62 459.98Q1036.5 461.04 1035.1 461.8Q1031.97 463.49 1027.5 463.49Q1023.65 463.49 1020.56 461.94Q1020.13 461.73 1019.72 461.48Q1018.52 460.76 1017.5 459.85Q1015.65 458.18 1014.39 455.86Q1012.46 452.25 1012.46 447.51Q1012.46 442.76 1014.42 439.19Q1015.51 437.25 1017.05 435.78Q1018.33 434.55 1019.93 433.66Q1020.41 433.39 1020.9 433.15Q1024.06 431.67 1027.93 431.67Q1032.11 431.67 1035.41 433.25Q1035.84 433.45 1036.25 433.68Q1039.05 435.24 1041.18 438L1048.88 430.3Q1048.32 429.66 1047.75 429.06Q1044.52 425.77 1039.98 423.76Q1034.62 421.37 1028.06 421.37Q1022.96 421.37 1018.42 422.97Q1017.91 423.15 1017.41 423.35Q1013.76 424.81 1010.78 427.13Q1009.72 427.96 1008.75 428.89Q1007.16 430.42 1005.87 432.17Q1004.14 434.5 1002.95 437.22Q1002.69 437.81 1002.46 438.42Q1000.85 442.66 1000.85 447.51Q1000.85 452.25 1002.36 456.45Q1002.62 457.15 1002.91 457.84Q1004.34 461.17 1006.52 463.92Q1007.47 465.11 1008.55 466.19Q1009.49 467.12 1010.5 467.94Q1013.41 470.28 1017.01 471.78Q1017.84 472.13 1018.69 472.41ZM483.47 422.16L499.8 473L508.66 473L518.31 440.87L527.96 473L536.82 473L553.16 422.16L542 422.16L532.3 454.08L522.77 422.16L513.91 422.16L504.43 453.98L494.7 422.16L483.47 422.16ZM809.26 447.37L809.26 473L820.27 473L820.27 447.37L828.19 447.37L828.19 438L820.27 438L820.27 423.53L809.26 423.53L809.26 438L801.34 438L801.34 447.37L809.26 447.37ZM1082.72 447.37L1082.72 473L1093.73 473L1093.73 447.37L1101.66 447.37L1101.66 438L1093.73 438L1093.73 423.53L1082.72 423.53L1082.72 438L1074.8 438L1074.8 447.37L1082.72 447.37ZM1386.72 434.95Q1387.84 435.48 1389.22 435.48Q1390.81 435.48 1392.02 434.81Q1392.73 434.42 1393.32 433.8Q1393.99 433.08 1394.38 432.24Q1394.92 431.07 1394.92 429.65Q1394.92 428.16 1394.33 426.97Q1393.95 426.2 1393.32 425.55Q1392.77 424.98 1392.1 424.6Q1390.86 423.9 1389.22 423.9Q1387.8 423.9 1386.65 424.46Q1385.83 424.86 1385.14 425.55Q1384.49 426.22 1384.1 427.02Q1383.53 428.19 1383.53 429.65Q1383.53 431.04 1384.05 432.2Q1384.45 433.06 1385.14 433.8Q1385.86 434.53 1386.72 434.95ZM560.9 471.45Q565.33 473.79 571.01 473.79Q575.4 473.79 579.08 472.27Q580.89 471.53 582.44 470.41Q584.03 469.27 585.33 467.74L579.29 461.69Q578.11 463.03 576.65 463.88Q576.15 464.17 575.61 464.4Q573.54 465.3 570.94 465.3Q568.12 465.3 566.07 464.12Q565.33 463.69 564.71 463.12Q563.62 462.13 562.9 460.73Q562.53 459.99 562.29 459.16L587.36 459.09Q587.64 457.74 587.74 456.7Q587.86 455.65 587.86 454.71Q587.86 450.04 585.97 446.33Q585.79 445.98 585.6 445.64Q584.43 443.6 582.82 442.02Q581.29 440.53 579.36 439.44Q579.28 439.4 579.21 439.36Q575.31 437.21 570.22 437.21Q565.78 437.21 562.1 438.86Q561.35 439.2 560.64 439.6Q558.47 440.81 556.76 442.49Q555.12 444.09 553.9 446.12Q553.4 446.95 553 447.83Q551.43 451.31 551.43 455.51Q551.43 459.47 552.86 462.83Q553.32 463.92 553.94 464.94Q554.96 466.63 556.3 468.02Q558.26 470.06 560.9 471.45ZM562.29 451.59Q562.51 450.84 562.83 450.18Q563.61 448.59 564.84 447.53Q565.29 447.15 565.79 446.84Q565.94 446.74 566.09 446.66Q567.91 445.64 570.29 445.64Q572.75 445.64 574.44 446.68Q574.87 446.95 575.25 447.28Q576.34 448.23 576.98 449.7Q577.34 450.53 577.57 451.55L562.29 451.59ZM620.77 472.21Q624.51 473.79 628.9 473.79Q633.14 473.79 636.6 472.31Q637.26 472.03 637.89 471.7Q640.58 470.28 642.79 467.95L635.81 460.9Q635.22 461.56 634.53 462.07Q633.77 462.63 632.89 463.03Q631.21 463.78 629.04 463.78Q627.36 463.78 625.9 463.21Q625.37 463 624.86 462.71Q623.87 462.13 623.11 461.34Q622.44 460.63 621.94 459.76Q621.93 459.74 621.92 459.71Q620.9 457.85 620.9 455.43Q620.9 452.97 621.94 451.15Q622.51 450.15 623.31 449.39Q623.99 448.74 624.83 448.26Q624.96 448.18 625.11 448.11Q626.85 447.23 629.04 447.23Q631.14 447.23 632.75 447.88Q633.12 448.02 633.47 448.2Q634.65 448.82 635.6 449.88L642.65 442.83Q640.69 440.75 638.31 439.44Q637.46 438.98 636.57 438.61Q633.14 437.21 629.04 437.21Q624.38 437.21 620.49 438.95Q619.83 439.25 619.18 439.6Q616.6 440.99 614.65 443Q613.28 444.41 612.22 446.12Q611.62 447.1 611.15 448.15Q609.67 451.5 609.67 455.51Q609.67 459.18 610.94 462.36Q611.46 463.66 612.19 464.87Q613.23 466.59 614.59 468Q616.53 470.02 619.11 471.41Q619.93 471.85 620.77 472.21ZM655.46 472.14Q659.21 473.79 663.68 473.79Q668.53 473.79 672.47 471.89Q672.97 471.65 673.46 471.38Q675.84 470.05 677.68 468.17Q679.17 466.66 680.29 464.79Q681.08 463.49 681.62 462.1Q682.82 459 682.82 455.43Q682.82 451.66 681.49 448.45Q680.98 447.24 680.29 446.12Q679.19 444.3 677.75 442.83Q675.89 440.93 673.46 439.6Q673.02 439.35 672.57 439.14Q668.59 437.21 663.68 437.21Q658.86 437.21 654.93 439.08Q654.39 439.34 653.87 439.63Q651.36 441.04 649.45 443.03Q648.09 444.44 647.03 446.15Q646.41 447.17 645.95 448.24Q644.52 451.53 644.52 455.43Q644.52 459.04 645.75 462.17Q646.28 463.52 647.03 464.79Q648.15 466.64 649.63 468.14Q651.49 470.04 653.91 471.38Q654.67 471.8 655.46 472.14ZM758.32 471.45Q762.75 473.79 768.43 473.79Q772.83 473.79 776.5 472.27Q778.32 471.53 779.87 470.41Q781.45 469.27 782.76 467.74L776.71 461.69Q775.53 463.03 774.07 463.88Q773.57 464.17 773.04 464.4Q770.96 465.3 768.36 465.3Q765.55 465.3 763.49 464.12Q762.75 463.69 762.14 463.12Q761.05 462.13 760.33 460.73Q759.96 459.99 759.71 459.16L784.78 459.09Q785.06 457.74 785.17 456.7Q785.29 455.65 785.29 454.71Q785.29 450.04 783.39 446.33Q783.21 445.98 783.02 445.64Q781.86 443.6 780.24 442.02Q778.71 440.53 776.78 439.44Q776.71 439.4 776.64 439.36Q772.73 437.21 767.64 437.21Q763.21 437.21 759.52 438.86Q758.78 439.2 758.06 439.6Q755.9 440.81 754.18 442.49Q752.55 444.09 751.33 446.12Q750.83 446.95 750.43 447.83Q748.85 451.31 748.85 455.51Q748.85 459.47 750.28 462.83Q750.75 463.92 751.36 464.94Q752.39 466.63 753.72 468.02Q755.69 470.06 758.32 471.45ZM759.72 451.59Q759.94 450.84 760.26 450.18Q761.03 448.59 762.27 447.53Q762.71 447.15 763.21 446.84Q763.36 446.74 763.52 446.66Q765.33 445.64 767.71 445.64Q770.17 445.64 771.86 446.68Q772.3 446.95 772.68 447.28Q773.77 448.23 774.41 449.7Q774.77 450.53 774.99 451.55L759.72 451.59ZM840.93 472.14Q844.68 473.79 849.15 473.79Q854.01 473.79 857.94 471.89Q858.44 471.65 858.93 471.38Q861.32 470.05 863.15 468.17Q864.64 466.66 865.76 464.79Q866.55 463.49 867.09 462.1Q868.3 459 868.3 455.43Q868.3 451.66 866.96 448.45Q866.46 447.24 865.76 446.12Q864.66 444.3 863.22 442.83Q861.36 440.93 858.93 439.6Q858.49 439.35 858.04 439.14Q854.06 437.21 849.15 437.21Q844.33 437.21 840.4 439.08Q839.86 439.34 839.35 439.63Q836.83 441.04 834.92 443.03Q833.56 444.44 832.51 446.15Q831.89 447.17 831.42 448.24Q829.99 451.53 829.99 455.43Q829.99 459.04 831.22 462.17Q831.75 463.52 832.51 464.79Q833.63 466.64 835.1 468.14Q836.96 470.04 839.38 471.38Q840.14 471.8 840.93 472.14ZM1324.2 472.14Q1327.95 473.79 1332.42 473.79Q1337.27 473.79 1341.21 471.89Q1341.71 471.65 1342.2 471.38Q1344.59 470.05 1346.42 468.17Q1347.91 466.66 1349.03 464.79Q1349.82 463.49 1350.36 462.1Q1351.56 459 1351.56 455.43Q1351.56 451.66 1350.23 448.45Q1349.72 447.24 1349.03 446.12Q1347.93 444.3 1346.49 442.83Q1344.63 440.93 1342.2 439.6Q1341.76 439.35 1341.31 439.14Q1337.33 437.21 1332.42 437.21Q1327.6 437.21 1323.67 439.08Q1323.13 439.34 1322.61 439.63Q1320.1 441.04 1318.19 443.03Q1316.83 444.44 1315.78 446.15Q1315.15 447.17 1314.69 448.24Q1313.26 451.53 1313.26 455.43Q1313.26 459.04 1314.49 462.17Q1315.02 463.52 1315.78 464.79Q1316.9 466.64 1318.37 468.14Q1320.23 470.04 1322.65 471.38Q1323.41 471.8 1324.2 472.14ZM1428.36 471.45Q1432.79 473.79 1438.47 473.79Q1442.86 473.79 1446.54 472.27Q1448.35 471.53 1449.91 470.41Q1451.49 469.27 1452.79 467.74L1446.75 461.69Q1445.57 463.03 1444.11 463.88Q1443.61 464.17 1443.07 464.4Q1441 465.3 1438.4 465.3Q1435.59 465.3 1433.53 464.12Q1432.79 463.69 1432.17 463.12Q1431.08 462.13 1430.36 460.73Q1430 459.99 1429.75 459.16L1454.82 459.09Q1455.1 457.74 1455.2 456.7Q1455.33 455.65 1455.33 454.71Q1455.33 450.04 1453.43 446.33Q1453.25 445.98 1453.06 445.64Q1451.89 443.6 1450.28 442.02Q1448.75 440.53 1446.82 439.44Q1446.75 439.4 1446.67 439.36Q1442.77 437.21 1437.68 437.21Q1433.25 437.21 1429.56 438.86Q1428.81 439.2 1428.1 439.6Q1425.93 440.81 1424.22 442.49Q1422.58 444.09 1421.36 446.12Q1420.86 446.95 1420.46 447.83Q1418.89 451.31 1418.89 455.51Q1418.89 459.47 1420.32 462.83Q1420.78 463.92 1421.4 464.94Q1422.42 466.63 1423.76 468.02Q1425.72 470.06 1428.36 471.45ZM1429.75 451.59Q1429.98 450.84 1430.29 450.18Q1431.07 448.59 1432.31 447.53Q1432.75 447.15 1433.25 446.84Q1433.4 446.74 1433.56 446.66Q1435.37 445.64 1437.75 445.64Q1440.21 445.64 1441.9 446.68Q1442.33 446.95 1442.71 447.28Q1443.81 448.23 1444.44 449.7Q1444.8 450.53 1445.03 451.55L1429.75 451.59ZM710.69 452.55L710.69 473L721.71 473L721.71 452.55Q721.71 450.74 722.47 449.53Q722.83 448.95 723.3 448.49Q723.83 447.97 724.51 447.61Q724.53 447.6 724.56 447.58Q725.84 446.93 727.46 446.93Q729.05 446.93 730.3 447.58Q730.93 447.91 731.47 448.4Q731.81 448.71 732.08 449.08Q733.09 450.44 733.09 452.55L733.09 473L744.11 473L744.11 451.32Q744.11 446.93 742.26 443.8Q741.26 442.08 739.85 440.79Q738.7 439.74 737.29 438.98Q737.2 438.93 737.11 438.89Q734.05 437.28 730.13 437.28Q726.44 437.28 723.42 438.71Q723.08 438.87 722.75 439.05Q721.34 439.81 720.16 440.84Q719.52 441.41 718.95 442.05Q718.34 441.27 717.61 440.6Q716.58 439.66 715.33 438.95Q714.83 438.66 714.3 438.42Q711.78 437.28 708.74 437.28Q705.12 437.28 702.19 438.7Q701.97 438.8 701.76 438.91Q700.42 439.61 699.32 440.57L699.32 438L688.3 438L688.3 473L699.32 473L699.32 452.55Q699.32 450.74 700.07 449.53Q700.43 448.95 700.91 448.49Q701.44 447.97 702.11 447.61Q703.41 446.93 705.08 446.93Q706.63 446.93 707.86 447.55Q708.51 447.89 709.07 448.4Q709.41 448.71 709.68 449.08Q710.69 450.44 710.69 452.55ZM909.84 452.55L909.84 473L920.86 473L920.86 452.55Q920.86 450.74 921.62 449.53Q921.98 448.95 922.45 448.49Q922.98 447.97 923.66 447.61Q923.69 447.6 923.71 447.58Q925 446.93 926.61 446.93Q928.2 446.93 929.45 447.58Q930.08 447.91 930.62 448.4Q930.96 448.71 931.23 449.08Q932.24 450.44 932.24 452.55L932.24 473L943.26 473L943.26 451.32Q943.26 446.93 941.41 443.8Q940.41 442.08 939 440.79Q937.85 439.74 936.44 438.98Q936.35 438.93 936.27 438.89Q933.2 437.28 929.28 437.28Q925.59 437.28 922.58 438.71Q922.23 438.87 921.9 439.05Q920.49 439.81 919.32 440.84Q918.68 441.41 918.11 442.05Q917.49 441.27 916.77 440.6Q915.73 439.66 914.48 438.95Q913.98 438.66 913.45 438.42Q910.93 437.28 907.89 437.28Q904.27 437.28 901.34 438.7Q901.12 438.8 900.91 438.91Q899.57 439.61 898.47 440.57L898.47 438L887.45 438L887.45 473L898.47 473L898.47 452.55Q898.47 450.74 899.23 449.53Q899.58 448.95 900.06 448.49Q900.59 447.97 901.26 447.61Q902.57 446.93 904.24 446.93Q905.78 446.93 907.01 447.55Q907.66 447.89 908.23 448.4Q908.57 448.71 908.83 449.08Q909.84 450.44 909.84 452.55ZM1257.11 472.54Q1259.88 473.72 1263.15 473.72Q1267.18 473.72 1270.48 472.15Q1271.25 471.79 1271.98 471.34Q1273.51 470.4 1274.78 469.18Q1276.69 467.34 1278.02 464.87Q1278.06 464.79 1278.11 464.7Q1280.22 460.65 1280.22 455.51Q1280.22 450.31 1278.07 446.26Q1278.05 446.2 1278.02 446.15Q1276.68 443.63 1274.71 441.77Q1273.47 440.59 1271.98 439.67Q1271.21 439.19 1270.4 438.81Q1267.14 437.28 1263.15 437.28Q1260.15 437.28 1257.56 438.32Q1257.11 438.5 1256.66 438.72Q1255.21 439.43 1254.01 440.41L1254.01 438L1242.99 438L1242.99 487.76L1253.87 487.76L1253.87 470.63Q1255.12 471.63 1256.66 472.35Q1256.89 472.45 1257.11 472.54ZM1296.85 453.77L1296.85 473L1285.82 473L1285.82 438L1296.85 438L1296.85 440.67Q1297.44 440.04 1298.14 439.53Q1301.15 437.28 1305.85 437.28Q1308.36 437.28 1310.26 438.03Q1310.82 438.25 1311.33 438.54Q1312.6 439.25 1313.62 440.39L1307.07 448.67Q1306.96 448.54 1306.84 448.41Q1306.18 447.79 1305.27 447.44Q1304.19 447 1302.82 447Q1300.8 447 1299.39 447.93Q1298.89 448.26 1298.47 448.7Q1296.85 450.39 1296.85 453.77ZM969.6 473.14L963.42 487.76L952.11 487.76L960.07 470.59L946.7 438L958.58 438L965.56 459.26L972.7 438L984.58 438L969.6 473.14ZM1058.96 438L1058.96 473L1069.98 473L1069.98 438L1058.96 438ZM1154.67 471.82Q1158.38 473.79 1163.22 473.79Q1168.03 473.79 1171.71 471.82Q1173.86 470.65 1175.47 468.97Q1176.61 467.78 1177.47 466.33Q1177.66 466.02 1177.82 465.7Q1179.56 462.42 1179.56 458.23L1179.56 438L1168.54 438L1168.54 458.16Q1168.54 460.72 1167.28 462.24Q1167.19 462.35 1167.1 462.45Q1166.69 462.88 1166.22 463.19Q1164.98 464 1163.22 464Q1161.49 464 1160.26 463.27Q1159.64 462.91 1159.18 462.4Q1158.72 461.9 1158.42 461.27Q1157.81 459.97 1157.81 458.16L1157.81 438L1146.8 438L1146.8 458.3Q1146.8 462.21 1148.36 465.35Q1148.6 465.85 1148.89 466.33Q1149.73 467.74 1150.82 468.9Q1152.46 470.63 1154.67 471.82ZM667.76 462.8Q666 463.78 663.68 463.78Q661.7 463.78 660.08 463.02Q659.82 462.89 659.57 462.75Q658.89 462.35 658.32 461.83Q657.39 460.97 656.76 459.79Q656.65 459.59 656.56 459.38Q655.75 457.63 655.75 455.51Q655.75 453.04 656.76 451.18Q657.38 450.03 658.29 449.2Q658.87 448.67 659.57 448.26Q659.82 448.12 660.08 447.99Q661.7 447.23 663.68 447.23Q666.05 447.23 667.81 448.26Q668.57 448.71 669.19 449.3Q670.02 450.09 670.59 451.15Q671.59 452.97 671.59 455.43Q671.59 457.88 670.63 459.79Q670.09 460.84 669.3 461.63Q668.66 462.28 667.85 462.75Q667.8 462.77 667.76 462.8ZM853.23 462.8Q851.47 463.78 849.15 463.78Q847.17 463.78 845.56 463.02Q845.29 462.89 845.04 462.75Q844.36 462.35 843.79 461.83Q842.86 460.97 842.23 459.79Q842.12 459.59 842.03 459.38Q841.23 457.63 841.23 455.51Q841.23 453.04 842.23 451.18Q842.85 450.03 843.76 449.2Q844.34 448.67 845.04 448.26Q845.29 448.12 845.56 447.99Q847.17 447.23 849.15 447.23Q851.53 447.23 853.28 448.26Q854.04 448.71 854.66 449.3Q855.49 450.09 856.06 451.15Q857.06 452.97 857.06 455.43Q857.06 457.88 856.1 459.79Q855.56 460.84 854.77 461.63Q854.13 462.28 853.32 462.75Q853.27 462.77 853.23 462.8ZM1208.36 462.93Q1206.75 463.78 1204.68 463.78Q1202.56 463.78 1200.92 462.92Q1200.77 462.84 1200.62 462.75Q1199.97 462.36 1199.42 461.85Q1198.48 461 1197.84 459.83Q1196.84 457.95 1196.84 455.51Q1196.84 453.04 1197.81 451.18Q1198.38 450.09 1199.22 449.29Q1199.82 448.7 1200.57 448.26Q1200.8 448.14 1201.03 448.03Q1202.66 447.23 1204.68 447.23Q1206.86 447.23 1208.54 448.14Q1208.65 448.2 1208.76 448.26Q1209.38 448.63 1209.91 449.1Q1210.87 449.97 1211.52 451.18Q1212.54 453.04 1212.54 455.51Q1212.54 457.67 1211.68 459.42Q1211.61 459.59 1211.52 459.76Q1210.93 460.85 1210.09 461.67Q1209.49 462.26 1208.76 462.71Q1208.56 462.83 1208.36 462.93ZM1265.18 462.76Q1263.46 463.78 1261.13 463.78Q1259.5 463.78 1258.1 463.21Q1257.59 463 1257.1 462.71Q1256.23 462.18 1255.56 461.47Q1254.82 460.72 1254.32 459.76L1254.31 459.73Q1253.36 457.86 1253.36 455.51Q1253.36 453.04 1254.36 451.18Q1255.04 449.93 1256.04 449.06Q1256.55 448.61 1257.14 448.26Q1257.29 448.17 1257.43 448.09Q1259.09 447.23 1261.19 447.23Q1263.38 447.23 1265.06 448.14Q1265.17 448.2 1265.28 448.26Q1265.9 448.63 1266.43 449.1Q1267.39 449.97 1268.04 451.18Q1269.06 453.04 1269.06 455.51Q1269.06 457.67 1268.21 459.42Q1268.13 459.59 1268.04 459.76Q1267.44 460.85 1266.61 461.67Q1266.01 462.26 1265.28 462.71Q1265.24 462.74 1265.18 462.76ZM1336.5 462.8Q1334.74 463.78 1332.42 463.78Q1330.44 463.78 1328.83 463.02Q1328.56 462.89 1328.31 462.75Q1327.63 462.35 1327.06 461.83Q1326.13 460.97 1325.5 459.79Q1325.39 459.59 1325.3 459.38Q1324.49 457.63 1324.49 455.51Q1324.49 453.04 1325.5 451.18Q1326.12 450.03 1327.03 449.2Q1327.61 448.67 1328.31 448.26Q1328.56 448.12 1328.83 447.99Q1330.44 447.23 1332.42 447.23Q1334.8 447.23 1336.55 448.26Q1337.31 448.71 1337.93 449.3Q1338.76 450.09 1339.33 451.15Q1340.33 452.97 1340.33 455.43Q1340.33 457.88 1339.37 459.79Q1338.83 460.84 1338.04 461.63Q1337.4 462.28 1336.59 462.75Q1336.54 462.77 1336.5 462.8Z" fill="#C2E0FF" fill-opacity="1.000000" fill-rule="evenodd"/>

		<rect id="hero-border-line" x="65.000000" y="60.000000" rx="47.000000" width="1816.000000" height="500.000000" stroke="#1B232B" stroke-opacity="1.000000" stroke-width="20.000000" stroke-dasharray="40 80 40" >
			<animate attributeName="stroke-dashoffset" values="0;200;0" dur="6s" repeatCount="indefinite" />
		</rect>
	</g>
</svg>
