<svg width="1901.594482" height="610.824219" viewBox="0 0 1901.59 610.824" fill="none" xmlns="http://www.w3.org/2000/svg" xmlns:xlink="http://www.w3.org/1999/xlink">
	<defs>
		<filter id="filter_2_54_dd" x="1390.109253" y="302.492188" width="458.381836" height="129.859375" filterUnits="userSpaceOnUse" color-interpolation-filters="sRGB">
			<feFlood flood-opacity="0" result="BackgroundImageFix"/>
			<feColorMatrix in="SourceAlpha" type="matrix" values="0 0 0 0 0 0 0 0 0 0 0 0 0 0 0 0 0 0 127 0" result="hardAlpha"/>
			<feOffset dx="0" dy="5"/>
			<feGaussianBlur stdDeviation="6.66667"/>
			<feComposite in2="hardAlpha" operator="out" k2="-1" k3="1"/>
			<feColorMatrix type="matrix" values="0 0 0 0 0.062745 0 0 0 0 0.090196 0 0 0 0 0.12549 0 0 0 0.2 0"/>
			<feBlend mode="normal" in2="BackgroundImageFix" result="effect_dropShadow_1"/>
			<feBlend mode="normal" in="SourceGraphic" in2="effect_dropShadow_1" result="shape"/>
		</filter>
	</defs>
	<rect id="iam-bg" x="2.594482" rx="60.000000" width="1180.000000" height="606.000000" fill="#004EAE" fill-opacity="1.000000"/>
	<path id="I am" d="M240.32 45.05L207.43 167.81L234.72 175.13L267.62 52.37L240.32 45.05ZM308.48 193.24Q314.97 198.49 323.79 200.86Q332.08 203.08 339.75 201.76Q339.94 201.72 340.13 201.69Q345.2 200.75 349.41 198.48L347.56 205.36L373.63 212.35L396.27 127.83L370.21 120.85L368.33 127.85Q365.79 123.68 361.85 120.29Q355.86 115.14 347.37 112.86Q338.66 110.53 330.5 111.79Q327.73 112.22 325.03 113.06Q321.46 114.16 318.2 115.84Q311.7 119.19 306.4 124.86Q306.3 124.96 306.2 125.07Q298.4 133.49 295.04 146.02Q291.71 158.45 294.18 169.59Q294.23 169.83 294.28 170.07Q296.02 177.47 299.87 183.53Q301.91 186.73 304.53 189.55Q306.38 191.55 308.48 193.24ZM459.7 182.5L446.47 231.86L473.09 239L486.32 189.63Q487.49 185.26 490.1 182.82Q491.34 181.64 492.78 180.84Q494.39 179.94 496.26 179.51Q496.34 179.49 496.41 179.48Q499.93 178.72 503.84 179.77Q507.68 180.79 510.27 183.18Q511.57 184.38 512.56 185.92Q513.18 186.89 513.59 187.94Q515.15 191.89 513.78 196.99L500.55 246.35L527.17 253.49L541.19 201.15Q544.03 190.54 541.6 181.79Q540.29 176.98 537.72 172.96Q535.63 169.68 532.71 166.94Q532.53 166.77 532.35 166.6Q525.99 160.72 516.53 158.19Q507.61 155.8 499.41 157.31Q498.48 157.48 497.56 157.7Q493.65 158.62 490.15 160.35Q488.24 161.3 486.45 162.49Q485.47 160.2 484.15 158.12Q482.27 155.17 479.71 152.64Q478.68 151.62 477.55 150.7Q472.21 146.31 464.87 144.35Q456.13 142.01 448.13 143.53Q447.55 143.65 446.96 143.78Q443.27 144.61 439.99 146.21L441.65 139.99L415.04 132.86L392.39 217.37L419.01 224.51L432.24 175.14Q433.41 170.77 436.02 168.33Q437.26 167.15 438.7 166.35Q440.32 165.45 442.18 165.02Q445.77 164.21 449.8 165.29Q453.54 166.29 456.09 168.6Q457.45 169.83 458.48 171.43Q459.1 172.4 459.51 173.45Q461.07 177.4 459.7 182.5ZM345.94 178.51Q341.15 179.8 335.61 178.32Q331.79 177.3 328.83 175.1Q327.61 174.21 326.54 173.11Q324.89 171.39 323.74 169.38Q322.35 166.98 321.66 164.16Q321.59 163.84 321.52 163.51Q320.56 158.61 321.99 153.24Q323.59 147.3 327.3 143.47Q329.93 140.77 333.14 139.28Q334.51 138.65 335.98 138.24Q336.49 138.11 337 138Q341.51 137.04 346.5 138.38Q351.58 139.74 355 142.9Q355.32 143.2 355.63 143.51Q357.11 145.01 358.18 146.76Q359.7 149.28 360.36 152.33Q361.49 157.46 359.9 163.4Q358.25 169.57 354.34 173.53Q352.77 175.12 350.83 176.35Q348.49 177.83 345.94 178.51Z" fill="#377ACD" fill-opacity="1.000000" fill-rule="evenodd"/>
	<path id="k05a4b" d="M251.5 350.82L271.08 304.25L232.79 293.99L236.32 300.35L193.66 399.79L227.02 408.73L236.16 387.88L247.02 414.09L283.73 423.93L258.66 370.62L313.91 351.53L277.24 341.7L251.5 350.82ZM843.93 495.41L858.23 461.57L821.51 451.74L823.47 457.67L780.81 557.12L855.9 577.24Q858.94 578.05 861.74 577.53Q863.58 577.18 865.3 576.25Q866.18 575.78 866.99 575.21Q870.23 572.94 872.43 569.2L897.28 509.71L843.93 495.41ZM337.99 340.32Q336.37 342.07 335.39 344.41L299.87 428.25L386.97 451.59Q389.38 452.23 391.72 452.03Q394.28 451.81 396.76 450.57Q399.17 449.36 400.94 447.52Q402.63 445.76 403.72 443.43L439.24 359.59L352.14 336.25Q349.93 335.66 347.76 335.77Q344.96 335.92 342.23 337.23Q339.73 338.43 337.99 340.32ZM740.36 440.27L702.45 430.12L705.16 435.3L671.98 489.01L665.26 504.91L724.56 520.8L716.49 539.88L749.51 548.73L757.58 529.65L770.83 533.2L777.5 517.29L764.3 513.75L789.89 453.55L750.29 442.93L754.3 450.88L731.23 504.89L705.51 498L740.36 440.27ZM513.25 435.88L500.95 464.43L441.65 448.54L437.7 440.39L428.36 462.68L515.46 486.02Q517.87 486.66 520.2 486.46Q522.77 486.24 525.24 485Q527.66 483.79 529.42 481.95Q531.11 480.19 532.21 477.86L534.15 473.33L552.99 428.83L486.9 411.12L495.18 392.09L561.06 409.75L567.64 394.36L462.07 366.07L466.26 373.52L447.2 418.18L513.25 435.88ZM339.61 421.2L366.69 357.67L399.55 366.47L372.47 430L339.61 421.2ZM611.17 450.92L628.91 455.68L622.74 468.18L572.7 454.77L559.11 485.25Q557.83 490.02 559.21 493.84Q559.29 494.06 559.38 494.28Q559.82 495.32 560.49 496.18Q562.37 498.59 566.06 499.57L644.5 520.59L639.94 510.45L667.47 448.13L585.71 426.22L574.46 448.19L607.82 457.13L611.17 450.92ZM821.27 550.08L837.72 511.63L857.71 516.99L841.1 555.39L821.27 550.08ZM593.83 489.14L598.28 479.5L614.96 483.97L610.51 493.61L593.83 489.14Z" fill="#F3A80F" fill-opacity="1.000000" fill-rule="evenodd"/>
	<rect id="from-bg" x="1229.594482" rx="60.000000" width="672.000000" height="606.000000" fill="#00C574" fill-opacity="1.000000"/>
	<path id="from-text" d="M1314.27 177.92L1314.27 242L1341.82 242L1341.82 177.92L1367 177.92L1367 154.5L1341.82 154.5L1341.82 146.06Q1341.82 141.45 1344.02 138.42Q1344.48 137.79 1345.03 137.23Q1345.64 136.62 1346.33 136.12Q1349.33 133.98 1353.86 133.98Q1356.94 133.98 1359.18 134.99Q1359.63 135.18 1360.06 135.41Q1361.78 136.32 1363.22 137.76L1380.49 120.49Q1378.6 118.51 1376.45 116.86Q1372.92 114.14 1368.72 112.31Q1361.99 109.32 1352.98 109.32Q1341.08 109.32 1332.42 114.29Q1327.73 117 1324.17 120.77Q1321.2 123.92 1319.01 127.83Q1318.14 129.39 1317.43 131.02Q1314.27 138.29 1314.27 146.94L1314.27 154.5L1295.02 154.5L1295.02 177.92L1314.27 177.92ZM1474.27 239.86Q1483.65 243.97 1494.83 243.97Q1506.96 243.97 1516.81 239.23Q1518.05 238.63 1519.26 237.95Q1525.24 234.63 1529.83 229.94Q1533.55 226.15 1536.36 221.47Q1538.32 218.23 1539.68 214.74Q1542.69 207 1542.69 198.09Q1542.69 188.67 1539.34 180.63Q1538.08 177.62 1536.36 174.8Q1533.61 170.26 1529.99 166.58Q1525.34 161.84 1519.26 158.5Q1518.17 157.89 1517.04 157.34Q1507.11 152.52 1494.83 152.52Q1482.76 152.52 1472.94 157.22Q1471.61 157.86 1470.31 158.59Q1464.02 162.1 1459.24 167.08Q1455.84 170.62 1453.21 174.89Q1451.66 177.42 1450.49 180.12Q1446.93 188.33 1446.93 198.09Q1446.93 207.11 1449.99 214.93Q1451.32 218.32 1453.21 221.47Q1456.01 226.1 1459.7 229.86Q1464.34 234.6 1470.4 237.95Q1472.29 239 1474.27 239.86ZM1405.9 193.92L1405.9 242L1378.35 242L1378.35 154.5L1405.9 154.5L1405.9 161.18Q1407.4 159.61 1409.12 158.33Q1416.66 152.7 1428.4 152.7Q1434.68 152.7 1439.43 154.59Q1440.82 155.14 1442.11 155.86Q1445.26 157.64 1447.82 160.48L1431.48 181.18Q1431.18 180.85 1430.86 180.54Q1429.23 178.98 1426.95 178.1Q1424.27 177 1420.84 177Q1415.77 177 1412.24 179.33Q1411 180.15 1409.94 181.26Q1405.9 185.48 1405.9 193.92ZM1612.35 190.89L1612.35 242L1639.91 242L1639.91 190.89Q1639.91 186.36 1641.8 183.33Q1642.69 181.87 1643.88 180.72Q1645.2 179.44 1646.89 178.54Q1646.96 178.5 1647.03 178.47Q1650.23 176.82 1654.28 176.82Q1658.25 176.82 1661.37 178.46Q1662.94 179.28 1664.3 180.52Q1665.15 181.29 1665.82 182.2Q1668.34 185.61 1668.34 190.89L1668.34 242L1695.89 242L1695.89 187.81Q1695.89 176.82 1691.28 169Q1688.76 164.7 1685.25 161.48Q1682.38 158.86 1678.84 156.96Q1678.63 156.84 1678.41 156.73Q1670.74 152.7 1660.96 152.7Q1651.72 152.7 1644.19 156.28Q1643.33 156.69 1642.5 157.14Q1638.97 159.03 1636.04 161.61Q1634.43 163.02 1633.01 164.64Q1631.47 162.68 1629.66 161.02Q1627.08 158.64 1623.95 156.87Q1622.69 156.15 1621.37 155.55Q1615.07 152.7 1607.47 152.7Q1598.43 152.7 1591.09 156.25Q1590.56 156.51 1590.03 156.78Q1586.67 158.54 1583.92 160.94L1583.92 154.5L1556.37 154.5L1556.37 242L1583.92 242L1583.92 190.89Q1583.92 186.36 1585.81 183.33Q1586.7 181.87 1587.89 180.72Q1589.22 179.44 1590.91 178.54Q1594.16 176.82 1598.33 176.82Q1602.2 176.82 1605.27 178.39Q1606.9 179.23 1608.31 180.52Q1609.16 181.29 1609.83 182.2Q1612.35 185.61 1612.35 190.89ZM1505.02 216.5Q1500.61 218.97 1494.83 218.97Q1489.88 218.97 1485.84 217.05Q1485.18 216.74 1484.55 216.38Q1482.85 215.38 1481.43 214.07Q1479.1 211.94 1477.52 208.99Q1477.25 208.49 1477.01 207.97Q1475.01 203.58 1475.01 198.27Q1475.01 192.12 1477.52 187.46Q1479.07 184.59 1481.34 182.51Q1482.8 181.18 1484.55 180.16Q1485.18 179.8 1485.84 179.49Q1489.88 177.57 1494.83 177.57Q1500.76 177.57 1505.16 180.16Q1507.05 181.27 1508.59 182.75Q1510.67 184.73 1512.1 187.37Q1514.61 191.94 1514.61 198.09Q1514.61 204.2 1512.19 208.99Q1510.85 211.61 1508.88 213.59Q1507.27 215.19 1505.24 216.38Q1505.13 216.44 1505.02 216.5Z" fill="#67FFC0" fill-opacity="1.000000" fill-rule="evenodd"/>
	<line id="underline" x1="1408" y1="414" x2="1831" y2="416" stroke="#67FFC0" stroke-opacity="1" stroke-width="30" stroke-dasharray="200,100" stroke-linecap="round">
		<animate attributeName="stroke-dashoffset" values="0;-200;-400;-800;-1200" dur="6s" repeatCount="indefinite" acalcMode="spline" keyTimes="0;0.25;0.5;0.75;1" keySplines="0.16, 1, 0.3, 1" />
	</line>
	<g filter="url(#filter_2_54_dd)">
		<path id="China" d="M1554.74 346.6L1558.78 317.49L1528.37 317.49L1531.11 321.67L1518.74 407.35L1546.37 407.35L1553.29 360.41L1569.85 360.41L1562.93 407.35L1590.6 407.35L1598.93 346.6L1554.74 346.6ZM1415.28 406.79Q1416.87 407.35 1418.65 407.35L1496.14 407.35L1498.84 388.05L1491.95 393.53L1438.09 393.53L1445.02 339.67L1505.77 339.67L1507.21 325.85L1420.09 325.85L1410.46 397.71Q1409.92 399.51 1410.21 401.17Q1410.24 401.36 1410.28 401.55Q1410.6 402.79 1411.27 403.79Q1411.57 404.24 1411.94 404.64Q1412.08 404.79 1412.24 404.93Q1413.37 405.99 1414.89 406.64Q1415.09 406.72 1415.28 406.79ZM1620.1 342.41L1646.46 342.41L1649.21 325.85L1621.54 325.85L1620.1 342.41ZM1638.1 407.35L1646.46 346.6L1614.65 346.6L1618.8 350.6L1610.46 407.35L1638.1 407.35ZM1732.58 407.35L1740.91 346.6L1664.9 346.6L1669.05 350.6L1660.72 407.35L1688.35 407.35L1695.28 360.41L1711.84 360.41L1704.91 407.35L1732.58 407.35ZM1785.57 360.41L1800.26 360.41L1798.08 371.35L1756.63 371.35L1752.45 397.71Q1752.45 401.67 1754.3 404.34Q1754.41 404.49 1754.52 404.64Q1755.08 405.35 1755.78 405.88Q1757.72 407.35 1760.78 407.35L1825.75 407.35L1820.12 400.46L1828.49 346.6L1760.78 346.6L1756.63 365.9L1784.26 365.9L1785.57 360.41ZM1780.08 393.53L1781.52 385.16L1795.34 385.16L1793.9 393.53L1780.08 393.53Z" fill="#DA4E4E" fill-opacity="1.000000" fill-rule="evenodd"/>
	</g>
	<line id="line" x1="2.594482" y1="175.000000" x2="1182.594482" y2="491.999969" stroke="#377ACD" stroke-opacity="1.000000" stroke-width="20.000000" stroke-dasharray="40.000000,40.000000">
		<animate attributeName="stroke-dashoffset" values="0;-200;-400;-800;-1200" dur="6s" repeatCount="indefinite"/>
	</line>
</svg>
